<svg xmlns="http://www.w3.org/2000/svg" version="1.1" xmlns:xlink="http://www.w3.org/1999/xlink" xmlns:svgjs="http://svgjs.dev/svgjs" width="1500" height="1500" viewBox="0 0 1500 1500"><rect width="1500" height="1500" fill="#000000"></rect><g transform="matrix(0.6666666666666666,0,0,0.6666666666666666,249.39436519522388,604.83760349855)"><svg viewBox="0 0 396 115" data-background-color="#3a3d53" preserveAspectRatio="xMidYMid meet" height="435" width="1500" xmlns="http://www.w3.org/2000/svg" xmlns:xlink="http://www.w3.org/1999/xlink"><g id="tight-bounds" transform="matrix(1,0,0,1,0.24008861730862918,0.06440090187714986)"><svg viewBox="0 0 395.52 114.87120048547897" height="114.87120048547897" width="395.52"><g><svg viewBox="0 0 395.52 114.87120048547897" height="114.87120048547897" width="395.52"><g><svg viewBox="0 0 395.52 114.87120048547897" height="114.87120048547897" width="395.52"><g id="textblocktransform"><svg viewBox="0 0 395.52 114.87120048547897" height="114.87120048547897" width="395.52" id="textblock"><g><svg viewBox="0 0 395.52 114.87120048547897" height="114.87120048547897" width="395.52"><path d="M394.594 24.638C392.735 12.714 387.435 9.399 387.435 9.399 371.165-2.882 350.86-0.235 332.619 1.53 300.414 1.601 268.339 4.224 236.208 5.631 168.767 5.846 100.749 2.317 33.643 11.021 27.339 13.692-6.54 11.546 1.121 26.164 3.129 32.245 10.456 38.994 10.232 44.574 11.236 45.552 12.631 43.31 13.226 44.717 15.309 48.509 18.711 46.72 21.501 48.962 17.614 54.947 20.403 59.932 23.062 65.154 18.377 66.513 12.371 65.869 9.675 70.377 9.396 73.644 7.89 73.024 6.235 72.881 5.026 72.785 2.59 73.143 2.999 74.168 4.394 77.674-1.594 79.701 2.162 83.135-0.422 86.855 3.948 90.074 3.353 94.105 3.278 94.915 3.687 95.607 4.338 95.798 7.22 96.823 3.018 98.826 3.464 100.996 33.029 115.829 65.104 105.575 95.394 112.395 103.259 107.626 97.346 114.088 100.489 113.087 102.943 111.918 104.728 116.759 107.499 114.017 107.927 113.23 107.276 111.37 108.8 111.728 109.6 111.918 110.307 111.871 110.418 110.774 110.586 109.128 109.117 110.154 108.726 109.295 112.947 104.955 111.906 115.281 115.866 114.852 115.68 113.588 114.528 111.775 116.889 112.014 119.232 110.201 119.306 108.699 121.389 112.777 121.463 113.659 121.835 114.279 122.43 114.708 128.938 110.273 135.409 116.282 142.233 114.279 146.417 112.085 150.433 115.472 154.672 114.637 156.16 113.969 157.666 112.777 159.098 114.78 176.632 115.209 195.319 113.421 211.943 114.852 256.364 112.181 303.836 115.949 350.674 112.419 361.719 111.06 373.192 109.128 383.958 107.578 383.958 107.578 392.679 103.333 392.679 84.256S394.538 67.563 394.817 52.372C395.096 37.181 396.398 36.561 394.538 24.638Z" opacity="1" fill="#ffffff" data-fill-palette-color="tertiary"></path><g transform="matrix(1,0,0,1,55.76832,26.230666666666668)"><svg width="283.98335999999995" viewBox="2.3 -33.5 153.79 33.8" height="62.40986715214562" data-palette-color="#3a3d53"><path d="M12.35 0.3Q8.9 0.3 6.4-1.35 3.9-3 2.65-5.65L2.65-5.65Q2.3-6.35 2.3-6.75L2.3-6.75Q2.35-7.6 3.25-8.28 4.15-8.95 5.05-8.85L5.05-8.85Q5.55-8.75 5.83-8.47 6.1-8.2 6.6-7.55L6.6-7.55Q7.95-5.7 9.18-4.73 10.4-3.75 12.4-3.75L12.4-3.75Q14.25-3.75 15.5-4.65 16.75-5.55 16.75-6.9L16.75-6.9Q16.75-8.35 15.45-9.13 14.15-9.9 11.35-10.9L11.35-10.9Q8.75-11.75 7.1-12.58 5.45-13.4 4.28-14.88 3.1-16.35 3.1-18.65L3.1-18.65Q3.1-20.75 4.28-22.48 5.45-24.2 7.55-25.18 9.65-26.15 12.3-26.15L12.3-26.15Q15-26.15 17.05-25.13 19.1-24.1 20.2-22.4 21.3-20.7 21.3-18.7L21.3-18.7Q21.3-17.55 20.78-17.03 20.25-16.5 19.05-16.5L19.05-16.5Q17.85-16.5 17.45-16.93 17.05-17.35 17-18.05L17-18.05Q16.8-20 15.63-21.03 14.45-22.05 12.3-22.05L12.3-22.05Q10.05-22.05 9.03-21.03 8-20 8-18.75L8-18.75Q8-17.25 9.33-16.45 10.65-15.65 13.55-14.65L13.55-14.65Q16.15-13.75 17.78-12.95 19.4-12.15 20.55-10.73 21.7-9.3 21.7-7.05L21.7-7.05Q21.7-4.65 20.38-3 19.05-1.35 16.9-0.53 14.75 0.3 12.35 0.3L12.35 0.3ZM42.3-8.75Q43.45-8.75 43.95-8.25 44.45-7.75 44.45-6.55L44.45-6.55Q44.45-3.7 42.6-1.83 40.75 0.05 37.9 0.05L37.9 0.05Q33.95 0.05 32.2-3.33 30.45-6.7 30.45-13.9L30.45-13.9Q30.45-16.45 30.6-19L30.6-19 28.2-19.15Q26.25-19.25 26.25-21.2L26.25-21.2Q26.25-22.2 26.77-22.68 27.3-23.15 28.5-23.1L28.5-23.1 30.95-22.95Q31.25-26.1 32.1-31.7L32.1-31.7Q32.4-33.5 34.55-33.5L34.55-33.5Q35.8-33.5 36.47-32.85 37.15-32.2 37.05-31.3L37.05-31.3Q36.35-26.95 35.85-22.7L35.85-22.7Q38.55-22.6 39.4-22.6L39.4-22.6Q40.35-22.6 40.8-22.18 41.25-21.75 41.25-20.85L41.25-20.85Q41.25-19.75 40.77-19.33 40.3-18.9 39.05-18.85L39.05-18.85 35.5-18.85Q35.35-16.45 35.35-13.9L35.35-13.9Q35.35-8.85 36-6.43 36.65-4 38.3-4L38.3-4Q40.2-4 40.35-6.95L40.35-6.95Q40.35-7.85 40.77-8.3 41.2-8.75 42.3-8.75L42.3-8.75ZM62.6 0.3Q58.35 0.3 55.32-1.45 52.3-3.2 50.77-6.15 49.25-9.1 49.25-12.65L49.25-12.65Q49.25-16.3 50.9-19.28 52.55-22.25 55.55-23.98 58.55-25.7 62.4-25.7L62.4-25.7Q65.8-25.7 68.52-24.33 71.25-22.95 72.8-20.45 74.34-17.95 74.34-14.75L74.34-14.75Q74.34-13.05 73.84-12.33 73.34-11.6 71.8-11.55L71.8-11.55 53.75-11.3Q53.75-9.65 54.8-7.9 55.85-6.15 57.82-4.98 59.8-3.8 62.45-3.8L62.45-3.8Q64.34-3.8 65.67-4.33 67-4.85 67.8-5.58 68.59-6.3 69.7-7.5L69.7-7.5Q70.25-8.05 71.09-8.05L71.09-8.05Q71.9-8.05 72.62-7.43 73.34-6.8 73.34-6L73.34-6Q73.34-5.35 72.9-4.75L72.9-4.75Q71.5-2.75 69.15-1.23 66.8 0.3 62.6 0.3L62.6 0.3ZM53.75-14.8L69.65-15.1Q69.95-15.1 70.07-15.28 70.2-15.45 70.2-15.8L70.2-15.8Q70.2-18.45 67.97-20.13 65.75-21.8 62.4-21.8L62.4-21.8Q59.85-21.8 57.87-20.6 55.9-19.4 54.82-17.73 53.75-16.05 53.75-14.8L53.75-14.8ZM93.14 0.3Q88.89 0.3 85.87-1.45 82.84-3.2 81.32-6.15 79.79-9.1 79.79-12.65L79.79-12.65Q79.79-16.3 81.44-19.28 83.09-22.25 86.09-23.98 89.09-25.7 92.94-25.7L92.94-25.7Q96.34-25.7 99.07-24.33 101.79-22.95 103.34-20.45 104.89-17.95 104.89-14.75L104.89-14.75Q104.89-13.05 104.39-12.33 103.89-11.6 102.34-11.55L102.34-11.55 84.29-11.3Q84.29-9.65 85.34-7.9 86.39-6.15 88.37-4.98 90.34-3.8 92.99-3.8L92.99-3.8Q94.89-3.8 96.22-4.33 97.54-4.85 98.34-5.58 99.14-6.3 100.24-7.5L100.24-7.5Q100.79-8.05 101.64-8.05L101.64-8.05Q102.44-8.05 103.17-7.43 103.89-6.8 103.89-6L103.89-6Q103.89-5.35 103.44-4.75L103.44-4.75Q102.04-2.75 99.69-1.23 97.34 0.3 93.14 0.3L93.14 0.3ZM84.29-14.8L100.19-15.1Q100.49-15.1 100.62-15.28 100.74-15.45 100.74-15.8L100.74-15.8Q100.74-18.45 98.52-20.13 96.29-21.8 92.94-21.8L92.94-21.8Q90.39-21.8 88.42-20.6 86.44-19.4 85.37-17.73 84.29-16.05 84.29-14.8L84.29-14.8ZM120.84-0.2Q116.89-0.2 112.99-11.05L112.99-11.05Q111.79-14.5 110.94-17.95 110.09-21.4 110.09-22.85L110.09-22.85Q110.09-24 110.77-24.58 111.44-25.15 112.59-25.15L112.59-25.15Q113.54-25.15 114.19-24.65 114.84-24.15 114.99-23.2L114.99-23.2Q115.59-18.7 117.29-13.2L117.29-13.2Q118.24-10.25 119.32-7.93 120.39-5.6 120.84-5.6L120.84-5.6Q121.34-5.6 122.49-7.93 123.64-10.25 124.69-13.25L124.69-13.25Q125.84-16.8 126.37-19.07 126.89-21.35 127.14-23.4L127.14-23.4Q127.24-24.3 127.89-24.85 128.54-25.4 129.64-25.4L129.64-25.4Q130.79-25.4 131.44-24.75 132.09-24.1 132.09-22.95L132.09-22.95Q132.09-21.45 131.22-18.15 130.34-14.85 128.99-11.25L128.99-11.25Q126.94-5.9 124.94-3.05 122.94-0.2 120.84-0.2L120.84-0.2ZM146.74 0.3Q143.29 0.3 140.79-1.35 138.29-3 137.04-5.65L137.04-5.65Q136.69-6.35 136.69-6.75L136.69-6.75Q136.74-7.6 137.64-8.28 138.54-8.95 139.44-8.85L139.44-8.85Q139.94-8.75 140.21-8.47 140.49-8.2 140.99-7.55L140.99-7.55Q142.34-5.7 143.56-4.73 144.79-3.75 146.79-3.75L146.79-3.75Q148.64-3.75 149.89-4.65 151.14-5.55 151.14-6.9L151.14-6.9Q151.14-8.35 149.84-9.13 148.54-9.9 145.74-10.9L145.74-10.9Q143.14-11.75 141.49-12.58 139.84-13.4 138.66-14.88 137.49-16.35 137.49-18.65L137.49-18.65Q137.49-20.75 138.66-22.48 139.84-24.2 141.94-25.18 144.04-26.15 146.69-26.15L146.69-26.15Q149.39-26.15 151.44-25.13 153.49-24.1 154.59-22.4 155.69-20.7 155.69-18.7L155.69-18.7Q155.69-17.55 155.16-17.03 154.64-16.5 153.44-16.5L153.44-16.5Q152.24-16.5 151.84-16.93 151.44-17.35 151.39-18.05L151.39-18.05Q151.19-20 150.01-21.03 148.84-22.05 146.69-22.05L146.69-22.05Q144.44-22.05 143.41-21.03 142.39-20 142.39-18.75L142.39-18.75Q142.39-17.25 143.71-16.45 145.04-15.65 147.94-14.65L147.94-14.65Q150.54-13.75 152.16-12.95 153.79-12.15 154.94-10.73 156.09-9.3 156.09-7.05L156.09-7.05Q156.09-4.65 154.76-3 153.44-1.35 151.29-0.53 149.14 0.3 146.74 0.3L146.74 0.3Z" opacity="1" transform="matrix(1,0,0,1,0,0)" fill="#000000" class="wordmark-text-0" data-fill-palette-color="quaternary" id="text-0"></path></svg></g></svg></g></svg></g></svg></g><g></g></svg></g><defs></defs></svg><rect width="395.52" height="114.87120048547897" fill="none" stroke="none" visibility="hidden"></rect></g></svg></g></svg>